<?xml version="1.0" standalone="no"?>
<!DOCTYPE svg PUBLIC "-//W3C//DTD SVG 20010904//EN"
 "http://www.w3.org/TR/2001/REC-SVG-20010904/DTD/svg10.dtd">
<svg version="1.0" xmlns="http://www.w3.org/2000/svg"
 width="512.000000pt" height="512.000000pt" viewBox="0 0 512.000000 512.000000"
 preserveAspectRatio="xMidYMid meet">

<g transform="translate(0.000000,512.000000) scale(0.100000,-0.100000)"
fill="#000000" stroke="none">
<path d="M2390 5014 c-19 -2 -78 -9 -130 -15 -830 -95 -1588 -653 -1932 -1422
-420 -938 -224 -2026 496 -2751 386 -388 875 -629 1436 -707 142 -20 507 -18
650 4 544 84 1012 318 1390 697 146 145 229 247 333 406 280 428 426 986 388
1489 -6 86 -19 197 -27 248 -90 526 -345 1008 -729 1375 -369 352 -831 578
-1345 657 -100 15 -454 28 -530 19z m107 -706 c-2 -120 40 -178 130 -181 47
-1 87 43 110 123 10 33 21 60 25 60 17 0 43 -99 42 -160 -1 -95 -40 -165 -142
-253 l-32 -27 0 -280 c0 -154 4 -280 8 -280 5 0 59 43 120 96 103 87 112 98
112 130 0 52 25 104 49 104 12 0 21 -1 21 -3 0 -1 -4 -17 -10 -36 -7 -25 -6
-40 6 -62 14 -29 47 -39 59 -19 11 17 25 11 25 -10 0 -29 -26 -76 -46 -84 -9
-4 -28 1 -41 9 -23 15 -26 13 -163 -105 l-140 -121 0 -80 0 -79 -65 0 -65 0 0
450 0 449 -27 15 c-70 36 -103 103 -103 208 0 110 53 208 111 208 14 0 17 -11
16 -72z m-343 -231 l50 -117 68 0 68 0 0 -229 0 -230 -57 -11 c-323 -67 -579
-243 -711 -490 -85 -157 -113 -297 -93 -455 41 -317 174 -554 394 -704 95 -65
244 -120 387 -144 l75 -12 3 -166 c1 -91 -1 -183 -6 -205 -9 -42 -4 -41 -93
-28 l-45 6 -34 -121 c-18 -67 -37 -124 -42 -127 -15 -9 -130 19 -135 33 -3 8
3 67 15 131 11 64 18 119 17 121 -5 5 -187 42 -191 39 -1 -2 -25 -52 -53 -113
-27 -60 -55 -111 -60 -113 -11 -4 -114 51 -143 75 -15 13 -13 22 22 109 l39
94 -70 60 -70 61 -58 -50 c-32 -28 -64 -58 -71 -66 -33 -40 -48 -38 -100 11
-28 26 -50 50 -50 55 0 4 25 43 55 87 l54 79 -50 74 c-28 41 -53 76 -55 78 -2
2 -44 -22 -93 -52 l-89 -56 -24 32 c-35 47 -58 85 -58 95 0 5 36 37 80 71 70
54 78 64 71 84 -61 158 -74 188 -84 184 -7 -3 -52 -21 -100 -41 -48 -20 -92
-34 -96 -31 -9 5 -46 154 -39 160 1 1 48 12 103 24 55 12 104 26 109 31 5 5 5
42 0 87 l-9 78 -130 22 c-71 12 -131 22 -133 22 -6 2 10 146 17 154 4 4 56 -2
116 -13 60 -11 110 -18 112 -16 9 9 31 182 24 189 -4 4 -37 15 -72 23 -146 34
-142 32 -136 67 3 18 13 58 22 91 l17 59 72 -7 c39 -3 92 -9 118 -12 l47 -6
35 71 36 71 -100 50 c-55 28 -100 53 -100 55 0 9 70 145 74 145 2 0 53 -20
112 -45 60 -25 114 -45 120 -45 9 0 60 62 87 106 4 8 -16 42 -54 91 -34 43
-66 83 -71 90 -12 15 13 54 57 88 l34 25 101 -65 c55 -36 104 -65 108 -65 4 0
34 27 66 59 l58 59 -47 86 c-26 48 -45 92 -42 100 5 12 121 86 136 86 4 0 38
-38 76 -85 37 -47 73 -85 79 -85 34 2 141 49 144 64 2 9 -6 59 -18 111 -12 52
-20 102 -18 112 3 18 130 74 158 70 8 -1 36 -52 64 -120z m1682 -155 c12 -9
26 -26 32 -38 10 -18 7 -23 -14 -35 -72 -38 -98 -120 -69 -213 25 -78 53 -101
121 -100 61 2 65 -5 39 -61 -19 -39 -62 -80 -93 -88 -33 -8 -84 9 -139 47
l-49 34 -95 -88 c-51 -48 -92 -90 -89 -93 3 -3 68 -13 144 -23 l139 -18 16 24
c20 31 49 60 59 60 5 0 17 -7 28 -15 19 -15 19 -15 -3 -32 -12 -10 -25 -29
-28 -43 -8 -33 10 -80 30 -80 9 0 18 -7 22 -15 6 -18 -23 -55 -45 -55 -22 0
-52 30 -52 51 0 10 -4 21 -10 24 -5 3 -87 16 -181 29 -94 13 -174 28 -178 35
-8 12 -55 -29 -303 -262 l-137 -128 -31 22 c-17 13 -37 34 -46 47 -16 25 -15
26 177 218 l194 194 7 88 c13 180 10 230 -16 265 -29 38 -40 77 -31 106 7 22
25 29 25 9 0 -16 30 -48 46 -48 22 0 44 30 44 62 0 35 18 34 38 -3 18 -34 7
-90 -21 -114 -23 -19 -25 -28 -31 -164 l-6 -144 23 20 c12 11 81 73 152 138
l130 119 -3 70 c-5 86 15 143 64 186 41 35 105 41 140 12z m-233 -888 c3 -3
-3 -22 -13 -41 -16 -31 -17 -40 -6 -67 9 -22 20 -32 39 -34 33 -4 36 -31 7
-57 -16 -14 -24 -15 -51 -6 -17 6 -35 8 -40 5 -12 -7 -129 -151 -129 -158 0
-3 107 -6 239 -6 l239 0 36 44 c20 24 36 53 36 64 0 33 11 52 31 52 16 0 17
-4 9 -26 -8 -21 -6 -29 15 -48 20 -19 23 -26 12 -34 -7 -6 -22 -9 -33 -6 -18
5 -64 -30 -53 -40 8 -8 365 -10 377 -2 7 4 12 14 12 23 0 33 43 105 74 124 64
39 138 13 175 -63 11 -24 21 -55 21 -69 0 -23 -3 -24 -40 -21 -78 8 -119 -46
-123 -156 -2 -79 21 -127 79 -163 19 -11 33 -26 31 -33 -7 -21 -70 -56 -100
-56 -44 0 -107 70 -143 159 l-29 71 -172 0 c-95 0 -173 -4 -173 -8 0 -16 42
-47 60 -44 9 1 22 -4 29 -12 10 -12 8 -17 -10 -26 -18 -10 -20 -18 -16 -47 5
-28 3 -34 -11 -31 -10 2 -18 15 -20 33 -2 17 -22 54 -44 83 l-40 52 -240 0
c-200 0 -239 -2 -236 -14 2 -8 31 -48 66 -90 54 -66 65 -75 82 -66 27 14 51
12 72 -7 23 -20 25 -58 2 -49 -45 17 -80 -54 -49 -100 34 -52 -16 -76 -55 -27
-17 22 -20 36 -16 64 5 34 0 43 -90 155 -53 65 -101 122 -108 126 -6 4 -66 8
-134 8 l-123 0 3 88 3 87 136 5 136 5 97 119 c90 111 96 122 96 164 0 51 21
82 55 82 12 0 24 -3 28 -6z m-928 -89 c214 -56 354 -258 317 -457 -42 -228
-261 -376 -500 -340 -276 43 -435 297 -341 546 24 67 109 164 178 204 96 56
236 75 346 47z m498 -826 l164 -170 154 -14 c142 -12 155 -12 163 3 16 28 64
72 78 72 8 0 23 -6 34 -14 18 -14 18 -15 -9 -36 -24 -19 -28 -28 -25 -63 3
-36 7 -43 33 -51 39 -13 38 -12 31 -34 -4 -11 -20 -25 -36 -32 -25 -10 -34
-10 -55 4 -13 9 -27 27 -31 41 -4 17 -13 25 -28 25 -11 0 -66 5 -120 10 -55 5
-101 8 -104 5 -5 -5 209 -245 219 -245 3 0 18 9 32 20 64 50 134 27 180 -61
25 -48 28 -62 25 -126 -2 -39 -7 -75 -11 -79 -4 -4 -24 11 -44 33 -21 22 -48
43 -60 47 -29 9 -70 -11 -97 -47 -28 -38 -34 -148 -12 -213 9 -26 16 -49 16
-51 0 -10 -37 0 -64 17 -68 41 -101 152 -91 305 l6 90 -133 147 c-73 81 -136
144 -140 140 -4 -4 -8 -73 -9 -154 -1 -144 0 -149 24 -178 31 -37 41 -64 33
-96 -8 -31 -20 -31 -34 1 -23 49 -82 24 -82 -35 0 -27 -21 -21 -38 11 -17 32
-7 79 23 107 25 23 25 23 25 222 l0 199 -130 142 c-82 89 -129 148 -125 157 9
24 49 71 62 71 6 1 85 -76 176 -170z m-531 -101 l3 -52 124 -108 c113 -97 127
-106 141 -93 9 8 24 15 33 15 21 0 57 -47 57 -76 0 -26 -11 -30 -39 -14 -14 7
-23 5 -36 -10 -19 -21 -22 -51 -11 -92 6 -21 5 -28 -6 -28 -26 0 -46 34 -55
92 l-8 57 -100 84 -100 85 -3 -352 c-2 -328 -1 -352 15 -361 10 -5 34 -26 54
-47 89 -90 72 -296 -30 -365 -19 -13 -37 -23 -41 -23 -4 0 -5 33 -2 73 8 125
-41 197 -133 197 -36 0 -78 -44 -99 -105 -35 -97 -32 -95 -51 -50 -27 61 -31
152 -10 216 14 42 33 69 86 122 l69 67 0 410 0 410 69 0 70 0 3 -52z"/>
<path d="M2425 2860 c-17 -17 -53 -38 -80 -48 -52 -19 -53 -20 -96 -120 -13
-30 -33 -65 -46 -78 -16 -17 -23 -37 -23 -64 0 -27 7 -47 23 -64 21 -23 49
-78 77 -154 9 -22 21 -34 39 -38 47 -10 90 -33 106 -58 22 -33 43 -39 71 -21
30 19 88 19 118 0 26 -18 52 -11 67 16 11 22 61 50 104 58 26 6 36 18 70 88
22 44 52 95 68 113 36 42 35 80 -3 124 -17 19 -46 67 -64 108 -33 70 -37 74
-85 91 -28 10 -67 32 -87 49 -33 30 -37 30 -73 18 -36 -12 -70 -10 -131 5 -19
5 -32 -1 -55 -25z"/>
</g>
</svg>
