<?xml version="1.0" standalone="no"?>
<!DOCTYPE svg PUBLIC "-//W3C//DTD SVG 20010904//EN"
 "http://www.w3.org/TR/2001/REC-SVG-20010904/DTD/svg10.dtd">
<svg version="1.0" xmlns="http://www.w3.org/2000/svg"
 width="2055.000000pt" height="792.000000pt" viewBox="0 0 2055.000000 792.000000"
 preserveAspectRatio="xMidYMid meet">

<g transform="translate(0.000000,792.000000) scale(0.100000,-0.100000)"
fill="#000000" stroke="none">
<path d="M4354 7544 c-94 -62 -150 -185 -161 -349 -13 -208 66 -379 206 -445
l51 -23 2 -891 3 -891 125 0 125 0 3 155 c2 129 5 157 20 173 33 37 523 452
538 455 8 2 28 -8 45 -22 53 -45 106 -27 140 48 18 40 25 106 13 119 -4 4 -19
-2 -34 -13 -40 -29 -74 -25 -104 10 -45 54 -51 120 -17 203 14 37 -10 48 -47
20 -43 -31 -62 -83 -71 -184 -7 -91 -7 -92 -45 -122 -21 -17 -122 -102 -224
-189 -102 -87 -191 -158 -199 -158 -11 0 -13 102 -13 569 l0 570 59 45 c134
103 232 238 266 366 30 113 14 265 -41 386 -30 68 -27 70 -68 -67 -46 -155
-130 -249 -223 -249 -113 0 -202 61 -244 166 -19 49 -23 78 -23 174 0 63 3
127 7 143 7 25 5 27 -21 27 -16 0 -47 -12 -68 -26z"/>
<path d="M3530 7171 c-179 -65 -205 -77 -208 -98 -2 -10 18 -112 43 -227 25
-114 45 -216 45 -227 0 -10 -12 -25 -27 -33 -31 -15 -267 -96 -282 -96 -5 0
-73 77 -151 170 -77 94 -146 170 -153 170 -12 0 -253 -142 -271 -160 -5 -5 33
-85 88 -185 53 -97 96 -182 96 -189 0 -7 -46 -58 -102 -112 -162 -157 -123
-153 -306 -33 -86 56 -181 117 -209 136 l-52 33 -97 -94 c-72 -71 -94 -99 -87
-108 5 -7 69 -88 141 -180 73 -91 132 -172 132 -179 0 -21 -169 -239 -186
-239 -9 0 -115 40 -236 90 -122 49 -225 87 -230 84 -5 -3 -38 -65 -74 -137
-63 -124 -65 -131 -48 -144 11 -8 99 -55 197 -105 118 -61 177 -96 177 -107 0
-16 -121 -246 -139 -264 -7 -7 -86 -2 -231 13 -190 20 -223 21 -231 9 -18 -29
-89 -279 -89 -316 0 -16 28 -26 202 -68 111 -28 210 -57 219 -65 17 -14 16
-25 -10 -197 -14 -100 -30 -185 -34 -189 -4 -4 -103 9 -220 29 -116 21 -219
37 -228 37 -19 0 -25 -31 -35 -192 -7 -107 -7 -108 17 -116 13 -5 122 -23 242
-41 120 -18 229 -36 242 -41 21 -8 23 -16 29 -107 4 -54 9 -125 12 -159 5 -46
2 -64 -9 -75 -8 -8 -105 -35 -216 -58 -198 -43 -201 -44 -201 -70 0 -30 57
-270 69 -289 6 -9 54 7 196 68 104 44 196 80 206 80 18 0 37 -44 134 -307 33
-89 36 -105 24 -119 -8 -9 -77 -66 -154 -127 -77 -60 -141 -117 -143 -126 -3
-17 135 -232 153 -238 6 -2 87 44 179 102 93 58 175 104 182 101 21 -8 216
-296 211 -311 -3 -7 -51 -78 -106 -158 -56 -80 -101 -151 -101 -159 0 -17 183
-198 199 -198 10 0 45 31 235 207 49 46 94 83 101 83 26 0 285 -223 285 -245
0 -7 -32 -91 -70 -186 -38 -95 -70 -178 -70 -185 0 -13 103 -75 229 -139 60
-30 76 -34 86 -23 6 7 54 105 105 218 51 113 98 211 104 218 10 10 48 5 195
-27 100 -21 186 -43 191 -47 5 -5 -11 -121 -34 -257 -40 -232 -42 -248 -26
-257 10 -5 71 -20 136 -34 95 -19 121 -22 129 -11 6 7 39 115 74 241 35 126
69 235 75 242 9 10 30 8 101 -8 50 -11 106 -20 126 -20 33 0 37 3 43 31 3 17
6 200 6 405 0 293 -3 374 -12 374 -39 0 -286 42 -358 60 -562 143 -986 524
-1197 1074 -118 310 -178 773 -129 1000 79 363 282 709 558 954 257 226 621
402 998 482 58 12 115 26 128 31 l22 9 0 427 c0 236 -3 438 -6 451 -6 20 -12
22 -83 22 -42 -1 -96 -5 -121 -10 -28 -5 -49 -5 -55 1 -5 6 -55 114 -110 241
-55 128 -104 233 -110 234 -5 2 -57 -14 -115 -35z"/>
<path d="M6885 6681 c-136 -63 -213 -251 -186 -450 7 -50 10 -95 6 -100 -3 -6
-79 -77 -168 -158 -89 -81 -222 -203 -295 -271 -76 -71 -137 -121 -142 -116
-9 9 5 481 16 551 3 23 14 38 38 53 62 38 84 144 47 227 -11 23 -29 46 -40 53
-20 10 -21 8 -21 -35 0 -87 -35 -135 -97 -135 -39 0 -56 15 -86 75 l-25 50
-11 -28 c-16 -40 -14 -112 4 -155 9 -20 35 -56 58 -80 l42 -43 -2 -72 c-8
-243 -27 -555 -35 -570 -5 -10 -178 -187 -384 -394 -205 -206 -374 -383 -374
-392 0 -9 37 -51 81 -94 l81 -79 47 44 c63 61 537 499 694 641 71 65 132 117
137 117 4 0 11 -11 14 -24 7 -28 -7 -25 306 -66 129 -17 273 -36 319 -43 l84
-12 18 -55 c23 -71 60 -104 107 -97 42 7 61 23 79 65 16 39 11 52 -23 52 -15
0 -38 12 -55 29 -27 27 -29 35 -29 102 l0 73 47 44 48 44 -24 19 c-55 44 -108
18 -166 -85 l-28 -48 -76 7 c-153 14 -515 70 -518 80 -3 9 163 166 335 318
l53 47 67 -52 c170 -130 293 -148 397 -56 48 42 102 139 112 202 l6 39 -49 -9
c-167 -30 -243 18 -300 188 -46 139 -36 258 30 349 29 39 104 100 139 112 17
5 -9 59 -46 95 -64 62 -155 79 -232 43z"/>
<path d="M9155 5415 c-307 -55 -472 -370 -452 -860 3 -77 11 -167 17 -200 42
-228 167 -431 304 -496 86 -41 154 -52 286 -47 99 4 124 8 176 32 76 34 160
117 207 206 41 75 87 216 87 264 0 33 0 33 -135 90 -74 31 -139 56 -144 56 -6
0 -15 -19 -21 -42 -49 -194 -116 -260 -246 -245 -90 10 -150 89 -175 230 -7
44 -10 136 -7 255 4 164 8 194 28 246 28 74 92 140 149 156 88 23 188 -40 226
-145 10 -27 21 -53 24 -57 7 -8 270 69 285 83 15 14 -11 103 -60 207 -77 165
-178 244 -346 272 -78 12 -114 12 -203 -5z"/>
<path d="M10395 5419 c-207 -32 -382 -218 -439 -464 -53 -232 -47 -529 14
-730 85 -276 263 -415 532 -415 247 0 408 113 503 355 78 197 96 554 39 780
-50 199 -154 354 -284 420 -102 52 -245 73 -365 54z m178 -373 c43 -18 92 -71
116 -126 35 -80 44 -158 39 -342 -5 -189 -22 -267 -75 -337 -49 -64 -165 -91
-236 -55 -102 52 -144 151 -154 369 -12 266 40 434 149 488 41 20 118 22 161
3z"/>
<path d="M14489 5419 c-251 -37 -411 -240 -460 -587 -15 -109 -6 -423 15 -514
40 -174 136 -347 231 -419 91 -68 147 -83 315 -84 185 0 233 16 328 111 70 71
137 197 166 315 26 107 33 98 -125 164 -79 32 -143 54 -148 49 -4 -5 -15 -38
-25 -74 -38 -142 -103 -210 -200 -210 -154 0 -225 138 -226 440 -1 261 65 416
189 450 90 24 187 -40 227 -151 23 -64 14 -64 190 -8 80 26 124 45 124 54 0
28 -59 186 -89 238 -51 90 -105 143 -184 182 -100 49 -203 63 -328 44z"/>
<path d="M11270 4615 l0 -785 438 2 437 3 7 110 c4 61 5 145 2 188 l-6 77
-247 0 c-135 0 -256 3 -268 6 l-23 6 -2 587 -3 586 -167 3 -168 2 0 -785z"/>
<path d="M12325 5388 c-3 -7 -4 -359 -3 -783 l3 -770 260 -3 c292 -3 371 5
462 48 209 97 316 381 300 795 -12 307 -78 501 -212 624 -101 91 -120 95 -488
99 -255 3 -318 1 -322 -10z m510 -352 c70 -22 111 -67 138 -151 20 -63 22 -91
22 -280 0 -170 -3 -220 -17 -265 -23 -73 -68 -127 -119 -140 -45 -12 -171 -16
-188 -6 -12 8 -16 810 -5 840 8 21 102 22 169 2z"/>
<path d="M15287 5393 c-4 -3 -7 -357 -7 -785 l0 -778 168 2 167 3 3 304 c1
204 6 309 13 318 9 10 52 13 179 13 93 0 175 -3 184 -6 14 -5 16 -43 16 -320
l0 -314 168 2 167 3 0 780 0 780 -167 3 -168 2 0 -263 c0 -191 -3 -266 -12
-275 -13 -13 -331 -18 -362 -6 -14 5 -16 39 -16 275 l0 269 -163 0 c-90 0
-167 -3 -170 -7z"/>
<path d="M16895 5391 c-8 -14 -415 -1528 -415 -1546 0 -13 24 -15 164 -15 119
0 166 3 174 13 5 6 19 55 31 107 11 52 24 105 27 118 l6 22 197 -2 196 -3 18
-75 c9 -41 23 -97 30 -125 l12 -50 173 -3 172 -2 0 22 c0 19 -339 1299 -395
1496 l-16 52 -184 0 c-101 0 -186 -4 -190 -9z m250 -697 c30 -136 52 -251 49
-256 -3 -4 -57 -8 -120 -8 -102 0 -114 2 -114 18 0 19 85 399 101 452 18 60
21 66 26 53 2 -6 28 -123 58 -259z"/>
<path d="M17827 5393 c-4 -3 -7 -357 -7 -785 l0 -778 168 2 167 3 3 783 2 782
-163 0 c-90 0 -167 -3 -170 -7z"/>
<path d="M18427 5393 c-4 -3 -7 -357 -7 -785 l0 -779 158 3 157 3 5 415 c3
228 9 414 14 413 4 -1 99 -189 209 -417 l202 -416 162 0 163 0 0 785 0 785
-160 0 c-146 0 -160 -2 -160 -17 -1 -10 -1 -180 -1 -378 0 -198 -4 -380 -8
-405 l-8 -45 -138 280 c-75 154 -168 344 -206 423 l-68 142 -154 0 c-84 0
-157 -3 -160 -7z"/>
<path d="M6541 4902 c-55 -28 -74 -73 -67 -163 l5 -76 -200 -246 -199 -247
-263 -2 -262 -3 -3 -172 -2 -173 249 0 c217 0 252 -2 266 -16 20 -20 331 -404
363 -447 21 -29 22 -39 17 -99 -8 -73 6 -117 50 -158 29 -28 79 -31 103 -6 14
13 14 19 4 34 -59 82 -67 133 -33 201 24 47 63 65 109 52 26 -8 32 -7 32 6 0
25 -31 83 -54 98 -26 19 -83 19 -116 0 -50 -28 -59 -21 -192 145 -71 87 -128
166 -128 175 0 13 54 15 483 15 l484 0 76 -96 c71 -89 77 -99 77 -143 0 -52
21 -91 50 -91 27 0 33 17 16 42 -34 48 -4 123 51 130 l27 3 -26 30 c-24 27
-28 28 -62 18 -35 -11 -37 -10 -76 34 -22 25 -40 52 -40 59 0 9 58 13 263 16
144 1 300 1 347 -2 l85 -5 28 -70 c53 -131 88 -200 126 -250 104 -138 236
-157 349 -49 l47 45 -55 32 c-72 41 -130 100 -161 162 -22 45 -24 62 -23 170
0 66 6 138 12 160 20 71 65 130 117 155 43 21 54 22 122 13 l75 -9 -6 55 c-9
78 -51 164 -103 212 -55 51 -98 69 -163 69 -124 0 -222 -110 -261 -292 -10
-45 -13 -48 -42 -49 -120 -2 -742 3 -745 6 -6 6 34 68 60 93 21 19 29 20 58
12 26 -7 39 -6 57 5 32 22 29 39 -12 54 -38 13 -51 41 -42 89 13 64 12 67 -10
70 -29 4 -56 -47 -51 -97 4 -32 -3 -45 -69 -128 -41 -50 -81 -94 -89 -97 -29
-11 -942 -7 -949 4 -4 6 54 87 129 180 l135 168 51 -19 c27 -10 63 -19 78 -19
37 0 81 46 88 91 l6 34 -46 -3 c-39 -3 -49 0 -70 23 -31 33 -47 104 -35 151 6
18 22 47 36 64 22 27 24 33 12 45 -24 23 -53 25 -88 7z"/>
<path d="M4475 4744 c-93 -14 -183 -37 -252 -64 -237 -91 -432 -307 -494 -549
-25 -97 -27 -257 -4 -361 53 -238 246 -462 484 -559 128 -53 202 -66 371 -65
138 1 165 4 244 28 154 47 258 107 362 211 104 103 170 207 211 330 23 70 27
97 27 215 1 112 -3 149 -22 213 -82 286 -309 501 -610 578 -75 19 -255 32
-317 23z m-35 -134 c56 -28 191 -28 238 0 18 11 39 20 48 20 27 0 69 -28 84
-54 16 -31 157 -111 221 -125 50 -11 84 -46 99 -102 18 -66 118 -244 150 -268
40 -29 60 -76 60 -142 0 -66 -24 -115 -72 -146 -21 -14 -38 -31 -38 -37 0 -7
-20 -52 -45 -100 -25 -49 -50 -106 -55 -128 -17 -60 -56 -98 -110 -105 -45 -6
-190 -77 -190 -93 0 -5 -15 -25 -34 -44 -41 -44 -77 -47 -130 -11 -31 21 -49
25 -110 25 -61 0 -77 -4 -106 -25 -59 -44 -108 -29 -156 46 -14 22 -33 43 -42
46 -9 4 -34 17 -56 31 -21 13 -57 25 -80 26 -23 2 -51 8 -63 14 -23 13 -63 87
-63 118 0 10 -18 56 -40 102 -22 46 -40 87 -40 92 0 4 -16 23 -36 42 -62 58
-81 116 -63 199 8 36 21 60 46 84 39 38 126 208 137 268 4 21 21 53 38 72 24
28 38 35 65 35 46 0 175 70 198 108 23 36 66 72 88 72 10 0 35 -9 57 -20z"/>
<path d="M9128 3600 c-234 -40 -389 -278 -405 -620 -4 -72 -1 -137 6 -173 17
-80 75 -190 119 -227 95 -79 300 -93 426 -31 41 20 82 51 113 84 46 51 105
155 119 211 7 29 5 30 -132 82 l-61 23 -38 -75 c-47 -91 -78 -117 -155 -122
-52 -4 -60 -2 -92 27 -59 52 -72 147 -43 317 30 175 102 269 205 269 61 0 98
-25 123 -86 13 -30 27 -49 37 -49 16 0 189 48 202 56 10 6 -19 119 -43 167
-43 86 -101 127 -204 146 -65 12 -108 12 -177 1z"/>
<path d="M10057 3600 c-175 -23 -325 -179 -386 -400 -32 -113 -45 -262 -32
-348 37 -238 152 -342 377 -342 273 0 450 204 493 571 31 252 -47 439 -207
499 -57 22 -167 31 -245 20z m143 -260 c66 -47 84 -213 41 -374 -40 -149 -92
-207 -193 -214 -51 -4 -62 -1 -92 22 -55 42 -70 95 -63 229 9 186 61 306 150
348 51 24 115 19 157 -11z"/>
<path d="M11804 3601 c-156 -25 -293 -150 -360 -328 -114 -303 -61 -631 116
-723 89 -45 265 -51 367 -12 217 83 341 336 331 676 -3 119 -6 137 -32 194
-36 78 -115 153 -183 176 -60 20 -172 27 -239 17z m141 -257 c13 -8 34 -36 46
-61 20 -41 21 -56 16 -166 -5 -134 -28 -225 -72 -289 -51 -75 -158 -101 -226
-55 -54 36 -69 77 -69 192 1 259 95 417 238 400 23 -2 53 -12 67 -21z"/>
<path d="M16512 3600 c-115 -17 -209 -88 -261 -199 -22 -47 -26 -70 -26 -141
0 -150 53 -211 243 -281 143 -53 172 -77 172 -144 0 -40 -5 -52 -33 -80 -81
-81 -205 -44 -222 67 -11 71 -8 69 -125 58 -57 -6 -107 -13 -112 -16 -15 -9
-8 -101 11 -163 23 -75 60 -125 109 -150 93 -47 275 -53 384 -12 82 32 150 97
195 188 33 67 38 86 41 168 5 110 -6 152 -55 206 -49 54 -81 72 -218 119 -128
44 -155 60 -155 96 0 83 92 130 166 85 27 -17 39 -36 58 -93 4 -15 18 -18 78
-18 113 0 147 8 154 37 9 36 -22 151 -52 190 -57 75 -190 106 -352 83z"/>
<path d="M18975 3571 c-124 -59 -195 -174 -195 -316 0 -158 50 -207 305 -300
64 -23 115 -73 115 -112 0 -66 -67 -133 -133 -133 -70 0 -115 45 -134 135 l-8
40 -60 -2 c-129 -5 -163 -12 -169 -37 -9 -37 13 -147 41 -204 46 -97 156 -140
333 -130 108 7 183 38 253 106 146 141 170 402 46 506 -42 36 -74 52 -188 92
-53 19 -108 39 -123 45 -34 14 -52 56 -39 92 12 32 66 67 102 67 43 0 92 -40
107 -88 l14 -42 81 1 c128 2 141 7 145 52 5 58 -24 143 -64 187 -50 55 -102
70 -248 70 -112 0 -125 -2 -181 -29z"/>
<path d="M10725 3578 c-7 -22 -125 -975 -125 -1012 l0 -36 168 -2 c170 -3 474
1 479 6 7 7 32 229 27 237 -3 5 -93 9 -200 9 l-194 0 0 26 c0 14 20 185 45
381 25 195 45 366 45 379 l0 24 -120 0 c-88 0 -122 -3 -125 -12z"/>
<path d="M12470 3588 c0 -2 -27 -217 -59 -478 -33 -261 -61 -497 -63 -525 l-3
-50 97 -3 96 -3 11 68 c6 37 27 203 46 368 20 165 38 311 41 325 13 58 23 -21
49 -368 14 -200 29 -370 32 -378 4 -11 26 -14 93 -14 l88 0 16 43 c9 23 64
191 122 372 107 332 124 379 131 359 2 -7 -17 -171 -42 -366 -25 -195 -45
-366 -45 -381 l0 -27 95 0 c67 0 97 4 100 13 9 23 132 1022 127 1035 -3 10
-42 12 -165 10 l-161 -3 -98 -300 c-54 -165 -100 -306 -103 -314 -15 -39 -25
28 -44 289 -12 157 -24 295 -27 308 -4 22 -6 22 -169 22 -91 0 -165 -1 -165
-2z"/>
<path d="M13586 3563 c-8 -39 -126 -987 -126 -1012 0 -21 4 -21 248 -21 270 0
344 8 410 46 49 29 106 109 128 179 18 61 18 186 0 228 -12 30 -60 79 -101
102 -16 10 -13 14 22 37 108 71 154 248 95 364 -49 96 -75 103 -404 104 l-266
0 -6 -27z m407 -194 c32 -17 37 -28 37 -82 0 -42 -5 -54 -34 -83 -33 -33 -36
-34 -115 -34 -60 0 -83 4 -87 14 -5 14 14 174 22 188 8 12 153 9 177 -3z m-1
-429 c27 -27 30 -36 25 -72 -6 -47 -32 -87 -68 -105 -14 -8 -63 -13 -118 -13
l-94 0 7 73 c4 39 9 89 13 110 l6 37 99 0 c98 0 100 -1 130 -30z"/>
<path d="M14515 3578 c-8 -23 -131 -1038 -126 -1043 2 -3 57 -5 122 -5 l117 0
6 28 c8 37 126 989 126 1013 0 18 -9 19 -120 19 -87 0 -122 -3 -125 -12z"/>
<path d="M15186 3563 c-51 -101 -426 -996 -426 -1019 0 -12 21 -14 122 -12
l122 3 31 80 31 80 151 3 152 3 6 -48 c3 -27 9 -64 13 -83 l7 -35 128 -3 c70
-1 127 0 127 4 0 9 -169 1006 -175 1032 -5 21 -9 22 -140 22 l-134 0 -15 -27z
m135 -436 c10 -89 19 -169 19 -179 0 -12 -13 -18 -50 -23 -68 -9 -130 2 -130
23 0 16 112 321 126 343 12 21 18 -5 35 -164z"/>
<path d="M17742 3573 c-16 -30 -432 -1029 -432 -1036 0 -4 56 -7 124 -7 l123
0 33 85 32 86 151 -3 152 -3 12 -80 c6 -44 12 -81 12 -82 1 -2 57 -3 126 -3
117 0 125 1 125 19 0 30 -168 1020 -175 1031 -4 6 -63 10 -140 10 -118 0 -135
-2 -143 -17z m137 -463 c11 -96 18 -177 15 -179 -2 -3 -45 -7 -94 -9 -77 -4
-90 -2 -90 11 0 13 53 164 122 346 16 44 26 8 47 -169z"/>
<path d="M5383 3376 c-26 -30 -56 -68 -65 -84 l-17 -28 232 -253 c128 -139
247 -271 265 -294 l33 -41 -6 -301 c-3 -165 -8 -345 -11 -400 -5 -97 -7 -101
-34 -117 -41 -23 -61 -59 -66 -120 -4 -43 -1 -62 18 -98 33 -65 54 -64 61 2 8
62 32 99 73 110 47 13 80 -7 106 -64 20 -44 24 -48 35 -32 7 10 13 43 13 75 0
63 -23 107 -87 166 l-35 32 6 163 c17 458 18 468 30 468 13 0 497 -533 530
-583 18 -27 19 -36 6 -185 -23 -286 23 -473 145 -580 43 -38 128 -77 145 -67
4 3 -6 44 -23 92 -38 112 -48 259 -23 345 32 111 120 198 200 198 68 -1 159
-68 201 -149 8 -17 20 -31 25 -31 18 0 44 114 44 190 -1 134 -52 259 -136 335
-92 83 -173 82 -281 -2 -57 -44 -59 -45 -76 -27 -51 55 -361 403 -394 442 -21
25 -34 48 -30 52 4 4 105 -1 223 -11 118 -10 227 -18 242 -18 23 -1 31 -9 49
-51 12 -28 35 -62 52 -76 27 -23 38 -25 81 -21 40 3 55 11 78 36 42 47 37 69
-14 78 -27 4 -53 17 -70 34 -25 25 -28 34 -28 97 0 65 2 73 30 101 17 16 39
33 50 36 56 18 -19 73 -83 61 -36 -7 -91 -59 -132 -127 -25 -40 4 -40 -360 -9
-197 17 -266 26 -285 38 -15 10 -167 164 -340 345 -172 180 -317 327 -321 327
-4 0 -29 -24 -56 -54z"/>
<path d="M4460 2175 c0 -781 -1 -816 -19 -832 -10 -10 -44 -38 -76 -63 -194
-150 -286 -388 -235 -605 12 -54 59 -165 69 -165 3 0 20 44 37 98 56 175 130
262 223 262 179 0 275 -121 274 -345 -1 -49 -5 -109 -11 -132 -9 -39 -8 -43 9
-43 33 0 94 36 129 76 153 174 156 516 6 681 -19 22 -63 55 -97 73 l-62 33 6
330 c4 182 7 496 7 699 0 294 3 368 13 368 7 0 67 -46 133 -102 66 -57 154
-131 196 -166 42 -35 79 -71 83 -80 4 -9 9 -51 11 -92 7 -117 31 -166 91 -184
32 -10 34 3 11 69 -23 69 -16 112 28 165 31 36 69 40 106 10 31 -24 38 -18 38
32 0 51 -21 100 -55 126 -36 29 -61 28 -107 -4 -47 -33 -26 -46 -274 168 -105
90 -208 178 -230 196 l-39 32 -5 103 -5 102 -127 3 -128 3 0 -816z"/>
<path d="M17016 2802 c-11 -18 -37 -255 -28 -264 5 -5 58 -7 118 -6 l109 3 11
80 c7 44 14 105 15 135 l4 55 -112 3 c-61 1 -114 -1 -117 -6z"/>
<path d="M18325 2798 c-4 -12 -35 -238 -35 -259 0 -6 45 -9 118 -7 l117 3 12
84 c7 47 13 108 15 135 l3 51 -113 3 c-84 2 -114 -1 -117 -10z"/>
</g>
</svg>
